# xmcd
#
# Track frame offsets: 
#        150
#        14989
#        28552
#        42644
#        54830
#        68116
#        81940
#        95809
#        110586
#        123324
#        136391
#        149858
#        164421
#        178248
#        190063
#        202332
#        216045
#        227476
#        241007
#        254454
#        266170
#        280805
#        292766
#        306307
#        318777
#
# Disc length: 4419 seconds
#
# Revision: 2
# Processed by: cddbd v1.5.2PL0 Copyright (c) Steve Scherf et al.
# Submitted via: ExactAudioCopy v0.99pb4
#
DISCID=84114119
DTITLE=Mildred Bailey - Mrs. Swing CD2
DYEAR=2005
DGENRE=Jazz Vocals
TTITLE0=More Than You Know
TTITLE1=A Thousand Dreams Of You
TTITLE2=Smoke Dreams
TTITLE3=Slumming On Park Avenue
TTITLE4=I've Got My Love To Keep Me Warm 
TTITLE5=My Last Affair
TTITLE6=Trust In Me
TTITLE7=Where Are You
TTITLE8=You're Laughing At Me
TTITLE9=Never In A Million Years
TTITLE10=There's A Lull In My Life
TTITLE11=Rockin' Chair
TTITLE12=If You Should Ever Leave
TTITLE13=The Moon Got In My Eyes
TTITLE14=Heaven Help This Heart Of Mine
TTITLE15=It's The Natural Thing To Do
TTITLE16=Posin'
TTITLE17=Bob White
TTITLE18=I See Your Face Before Me
TTITLE19=Thanks For The Memory
TTITLE20=Lover Come Back To Me
TTITLE21=Always And Always
TTITLE22=I Was Doing Alright
TTITLE23=It's Wonderful
TTITLE24=Our Love Is Here To Stay
EXTD=YEAR: 1938
EXTT0=
EXTT1=
EXTT2=
EXTT3=
EXTT4=
EXTT5=
EXTT6=
EXTT7=
EXTT8=
EXTT9=
EXTT10=
EXTT11=
EXTT12=
EXTT13=
EXTT14=
EXTT15=
EXTT16=
EXTT17=
EXTT18=
EXTT19=
EXTT20=
EXTT21=
EXTT22=
EXTT23=
EXTT24=
PLAYORDER=
